<mxfile host="app.diagrams.net" modified="2021-06-22T06:03:24.554Z" agent="5.0 (Macintosh; Intel Mac OS X 10_14_6) AppleWebKit/537.36 (KHTML, like Gecko) Chrome/91.0.4472.77 Safari/537.36" etag="T3mVQuoJ4doJqdi4vRZG" version="14.7.9" type="github" pages="2">
  <diagram id="tg_aiwh_hqNsNNgc-Pqn" name="第 1 页">
    <mxGraphModel dx="1426" dy="803" grid="1" gridSize="10" guides="1" tooltips="1" connect="1" arrows="1" fold="1" page="1" pageScale="1" pageWidth="1654" pageHeight="1169" math="0" shadow="0">
      <root>
        <mxCell id="0" />
        <mxCell id="1" parent="0" />
        <mxCell id="GAPo2rdyD71cmXG3JKGg-1" value="" style="rounded=1;whiteSpace=wrap;html=1;arcSize=4;" vertex="1" parent="1">
          <mxGeometry x="130" y="200" width="360" height="310" as="geometry" />
        </mxCell>
        <mxCell id="GAPo2rdyD71cmXG3JKGg-2" value="&lt;font style=&quot;font-size: 17px&quot;&gt;R1系统&lt;/font&gt;" style="text;html=1;strokeColor=none;fillColor=none;align=center;verticalAlign=middle;whiteSpace=wrap;rounded=0;" vertex="1" parent="1">
          <mxGeometry x="245" y="90" width="130" height="20" as="geometry" />
        </mxCell>
        <mxCell id="GAPo2rdyD71cmXG3JKGg-3" value="" style="rounded=0;whiteSpace=wrap;html=1;fillColor=#f5f5f5;strokeColor=#666666;fontColor=#333333;" vertex="1" parent="1">
          <mxGeometry x="170" y="260" width="120" height="60" as="geometry" />
        </mxCell>
        <mxCell id="GAPo2rdyD71cmXG3JKGg-4" value="" style="rounded=0;whiteSpace=wrap;html=1;fillColor=#f5f5f5;strokeColor=#666666;fontColor=#333333;" vertex="1" parent="1">
          <mxGeometry x="170" y="360" width="120" height="60" as="geometry" />
        </mxCell>
        <mxCell id="GAPo2rdyD71cmXG3JKGg-5" value="" style="rounded=0;whiteSpace=wrap;html=1;fillColor=#f5f5f5;strokeColor=#666666;fontColor=#333333;" vertex="1" parent="1">
          <mxGeometry x="320" y="260" width="120" height="60" as="geometry" />
        </mxCell>
        <mxCell id="GAPo2rdyD71cmXG3JKGg-6" value="" style="rounded=0;whiteSpace=wrap;html=1;fillColor=#f5f5f5;strokeColor=#666666;fontColor=#333333;" vertex="1" parent="1">
          <mxGeometry x="320" y="360" width="120" height="60" as="geometry" />
        </mxCell>
        <mxCell id="GAPo2rdyD71cmXG3JKGg-8" value="" style="rounded=0;whiteSpace=wrap;html=1;" vertex="1" parent="1">
          <mxGeometry x="670" y="90" width="650" height="470" as="geometry" />
        </mxCell>
        <mxCell id="GAPo2rdyD71cmXG3JKGg-9" value="&lt;font style=&quot;font-size: 17px&quot;&gt;仲谋&lt;/font&gt;" style="text;html=1;strokeColor=none;fillColor=none;align=center;verticalAlign=middle;whiteSpace=wrap;rounded=0;" vertex="1" parent="1">
          <mxGeometry x="910" y="50" width="130" height="20" as="geometry" />
        </mxCell>
        <mxCell id="GAPo2rdyD71cmXG3JKGg-10" value="" style="rounded=0;whiteSpace=wrap;html=1;fillColor=#f5f5f5;strokeColor=#666666;fontColor=#333333;" vertex="1" parent="1">
          <mxGeometry x="800" y="210" width="120" height="60" as="geometry" />
        </mxCell>
        <mxCell id="GAPo2rdyD71cmXG3JKGg-11" value="" style="rounded=0;whiteSpace=wrap;html=1;fillColor=#f5f5f5;strokeColor=#666666;fontColor=#333333;" vertex="1" parent="1">
          <mxGeometry x="800" y="310" width="120" height="60" as="geometry" />
        </mxCell>
        <mxCell id="GAPo2rdyD71cmXG3JKGg-12" value="" style="rounded=0;whiteSpace=wrap;html=1;fillColor=#f5f5f5;strokeColor=#666666;fontColor=#333333;" vertex="1" parent="1">
          <mxGeometry x="950" y="210" width="120" height="60" as="geometry" />
        </mxCell>
        <mxCell id="GAPo2rdyD71cmXG3JKGg-13" value="" style="rounded=0;whiteSpace=wrap;html=1;fillColor=#f5f5f5;strokeColor=#666666;fontColor=#333333;" vertex="1" parent="1">
          <mxGeometry x="950" y="310" width="120" height="60" as="geometry" />
        </mxCell>
        <mxCell id="GAPo2rdyD71cmXG3JKGg-16" value="" style="endArrow=classic;html=1;exitX=1;exitY=0.5;exitDx=0;exitDy=0;entryX=0;entryY=0.5;entryDx=0;entryDy=0;" edge="1" parent="1" source="GAPo2rdyD71cmXG3JKGg-5" target="GAPo2rdyD71cmXG3JKGg-10">
          <mxGeometry width="50" height="50" relative="1" as="geometry">
            <mxPoint x="550" y="360" as="sourcePoint" />
            <mxPoint x="600" y="310" as="targetPoint" />
          </mxGeometry>
        </mxCell>
        <mxCell id="GAPo2rdyD71cmXG3JKGg-17" value="" style="shape=flexArrow;endArrow=classic;startArrow=classic;html=1;entryX=0;entryY=0.5;entryDx=0;entryDy=0;exitX=1.003;exitY=0.468;exitDx=0;exitDy=0;exitPerimeter=0;" edge="1" parent="1" source="GAPo2rdyD71cmXG3JKGg-1" target="GAPo2rdyD71cmXG3JKGg-8">
          <mxGeometry width="100" height="100" relative="1" as="geometry">
            <mxPoint x="530" y="440" as="sourcePoint" />
            <mxPoint x="630" y="340" as="targetPoint" />
          </mxGeometry>
        </mxCell>
        <mxCell id="GAPo2rdyD71cmXG3JKGg-18" value="&lt;font style=&quot;font-size: 15px&quot;&gt;token&lt;/font&gt;" style="text;html=1;strokeColor=none;fillColor=none;align=center;verticalAlign=middle;whiteSpace=wrap;rounded=0;" vertex="1" parent="1">
          <mxGeometry x="570" y="320" width="40" height="20" as="geometry" />
        </mxCell>
        <mxCell id="GAPo2rdyD71cmXG3JKGg-19" value="" style="endArrow=classic;html=1;exitX=1;exitY=0.5;exitDx=0;exitDy=0;entryX=0;entryY=0.5;entryDx=0;entryDy=0;" edge="1" parent="1" source="GAPo2rdyD71cmXG3JKGg-6" target="GAPo2rdyD71cmXG3JKGg-11">
          <mxGeometry width="50" height="50" relative="1" as="geometry">
            <mxPoint x="450" y="300" as="sourcePoint" />
            <mxPoint x="810" y="250" as="targetPoint" />
          </mxGeometry>
        </mxCell>
        <mxCell id="GAPo2rdyD71cmXG3JKGg-20" value="姓名&lt;br&gt;手机号&lt;br&gt;邮箱" style="rounded=0;whiteSpace=wrap;html=1;" vertex="1" parent="1">
          <mxGeometry x="245" y="120" width="120" height="60" as="geometry" />
        </mxCell>
        <mxCell id="GAPo2rdyD71cmXG3JKGg-21" value="姓名&lt;br&gt;手机号&lt;br&gt;邮箱" style="rounded=0;whiteSpace=wrap;html=1;fillColor=#d5e8d4;strokeColor=#82b366;" vertex="1" parent="1">
          <mxGeometry x="890" y="110" width="120" height="60" as="geometry" />
        </mxCell>
        <mxCell id="GAPo2rdyD71cmXG3JKGg-22" value="" style="endArrow=classic;html=1;exitX=1;exitY=0.5;exitDx=0;exitDy=0;entryX=0;entryY=0.5;entryDx=0;entryDy=0;" edge="1" parent="1" source="GAPo2rdyD71cmXG3JKGg-20" target="GAPo2rdyD71cmXG3JKGg-21">
          <mxGeometry width="50" height="50" relative="1" as="geometry">
            <mxPoint x="520" y="140" as="sourcePoint" />
            <mxPoint x="570" y="90" as="targetPoint" />
          </mxGeometry>
        </mxCell>
        <mxCell id="GAPo2rdyD71cmXG3JKGg-23" value="生成token" style="text;html=1;strokeColor=none;fillColor=none;align=center;verticalAlign=middle;whiteSpace=wrap;rounded=0;" vertex="1" parent="1">
          <mxGeometry x="560" y="110" width="40" height="20" as="geometry" />
        </mxCell>
        <mxCell id="GAPo2rdyD71cmXG3JKGg-24" value="用户表" style="text;html=1;strokeColor=none;fillColor=none;align=center;verticalAlign=middle;whiteSpace=wrap;rounded=0;" vertex="1" parent="1">
          <mxGeometry x="200" y="140" width="40" height="20" as="geometry" />
        </mxCell>
        <mxCell id="GAPo2rdyD71cmXG3JKGg-25" value="dh_user" style="text;html=1;strokeColor=none;fillColor=none;align=center;verticalAlign=middle;whiteSpace=wrap;rounded=0;" vertex="1" parent="1">
          <mxGeometry x="1020" y="130" width="40" height="20" as="geometry" />
        </mxCell>
        <mxCell id="GAPo2rdyD71cmXG3JKGg-26" value="种token" style="text;html=1;strokeColor=none;fillColor=none;align=center;verticalAlign=middle;whiteSpace=wrap;rounded=0;" vertex="1" parent="1">
          <mxGeometry x="210" y="280" width="60" height="20" as="geometry" />
        </mxCell>
        <mxCell id="GAPo2rdyD71cmXG3JKGg-27" value="种token" style="text;html=1;strokeColor=none;fillColor=none;align=center;verticalAlign=middle;whiteSpace=wrap;rounded=0;" vertex="1" parent="1">
          <mxGeometry x="350" y="280" width="60" height="20" as="geometry" />
        </mxCell>
        <mxCell id="GAPo2rdyD71cmXG3JKGg-28" value="种token" style="text;html=1;strokeColor=none;fillColor=none;align=center;verticalAlign=middle;whiteSpace=wrap;rounded=0;" vertex="1" parent="1">
          <mxGeometry x="200" y="380" width="60" height="20" as="geometry" />
        </mxCell>
        <mxCell id="GAPo2rdyD71cmXG3JKGg-29" value="种token" style="text;html=1;strokeColor=none;fillColor=none;align=center;verticalAlign=middle;whiteSpace=wrap;rounded=0;" vertex="1" parent="1">
          <mxGeometry x="350" y="380" width="60" height="20" as="geometry" />
        </mxCell>
      </root>
    </mxGraphModel>
  </diagram>
  <diagram id="Rno7sWsn27WP5cPIk-0U" name="第 2 页">
    <mxGraphModel dx="1426" dy="803" grid="1" gridSize="10" guides="1" tooltips="1" connect="1" arrows="1" fold="1" page="1" pageScale="1" pageWidth="1654" pageHeight="1169" math="0" shadow="0">
      <root>
        <mxCell id="P5xsUmdTjZuujOmd9qbt-0" />
        <mxCell id="P5xsUmdTjZuujOmd9qbt-1" parent="P5xsUmdTjZuujOmd9qbt-0" />
        <mxCell id="P5xsUmdTjZuujOmd9qbt-15" value="" style="rounded=0;whiteSpace=wrap;html=1;" vertex="1" parent="P5xsUmdTjZuujOmd9qbt-1">
          <mxGeometry x="880" y="210" width="450" height="470" as="geometry" />
        </mxCell>
        <mxCell id="P5xsUmdTjZuujOmd9qbt-16" value="" style="rounded=0;whiteSpace=wrap;html=1;" vertex="1" parent="P5xsUmdTjZuujOmd9qbt-1">
          <mxGeometry x="880" y="210" width="140" height="470" as="geometry" />
        </mxCell>
        <mxCell id="P5xsUmdTjZuujOmd9qbt-6" value="" style="rounded=1;whiteSpace=wrap;html=1;arcSize=4;fillColor=#ffe6cc;strokeColor=#d79b00;" vertex="1" parent="P5xsUmdTjZuujOmd9qbt-1">
          <mxGeometry x="240" y="190" width="360" height="530" as="geometry" />
        </mxCell>
        <mxCell id="P5xsUmdTjZuujOmd9qbt-5" style="edgeStyle=orthogonalEdgeStyle;rounded=0;orthogonalLoop=1;jettySize=auto;html=1;entryX=0.5;entryY=0;entryDx=0;entryDy=0;" edge="1" parent="P5xsUmdTjZuujOmd9qbt-1" source="P5xsUmdTjZuujOmd9qbt-2" target="P5xsUmdTjZuujOmd9qbt-4">
          <mxGeometry relative="1" as="geometry" />
        </mxCell>
        <mxCell id="P5xsUmdTjZuujOmd9qbt-2" value="" style="ellipse;whiteSpace=wrap;html=1;aspect=fixed;" vertex="1" parent="P5xsUmdTjZuujOmd9qbt-1">
          <mxGeometry x="680" y="80" width="80" height="80" as="geometry" />
        </mxCell>
        <mxCell id="P5xsUmdTjZuujOmd9qbt-4" value="获取Token" style="rounded=0;whiteSpace=wrap;html=1;" vertex="1" parent="P5xsUmdTjZuujOmd9qbt-1">
          <mxGeometry x="340" y="200" width="120" height="60" as="geometry" />
        </mxCell>
        <mxCell id="P5xsUmdTjZuujOmd9qbt-7" value="&lt;font style=&quot;font-size: 16px&quot; color=&quot;#ff3333&quot;&gt;仲谋&lt;/font&gt;" style="text;html=1;strokeColor=none;fillColor=none;align=center;verticalAlign=middle;whiteSpace=wrap;rounded=0;" vertex="1" parent="P5xsUmdTjZuujOmd9qbt-1">
          <mxGeometry x="190" y="445" width="40" height="20" as="geometry" />
        </mxCell>
        <mxCell id="P5xsUmdTjZuujOmd9qbt-8" value="&lt;font style=&quot;font-size: 16px&quot;&gt;R1请求&lt;/font&gt;" style="text;html=1;strokeColor=none;fillColor=none;align=center;verticalAlign=middle;whiteSpace=wrap;rounded=0;" vertex="1" parent="P5xsUmdTjZuujOmd9qbt-1">
          <mxGeometry x="685" y="110" width="70" height="20" as="geometry" />
        </mxCell>
        <mxCell id="P5xsUmdTjZuujOmd9qbt-9" value="报表1" style="rounded=0;whiteSpace=wrap;html=1;fillColor=#f5f5f5;strokeColor=#666666;fontColor=#333333;" vertex="1" parent="P5xsUmdTjZuujOmd9qbt-1">
          <mxGeometry x="890" y="220" width="120" height="60" as="geometry" />
        </mxCell>
        <mxCell id="P5xsUmdTjZuujOmd9qbt-11" value="报表1" style="rounded=0;whiteSpace=wrap;html=1;fillColor=#f5f5f5;strokeColor=#666666;fontColor=#333333;" vertex="1" parent="P5xsUmdTjZuujOmd9qbt-1">
          <mxGeometry x="430" y="280" width="120" height="60" as="geometry" />
        </mxCell>
        <mxCell id="P5xsUmdTjZuujOmd9qbt-12" value="报表2" style="rounded=0;whiteSpace=wrap;html=1;fillColor=#f5f5f5;strokeColor=#666666;fontColor=#333333;" vertex="1" parent="P5xsUmdTjZuujOmd9qbt-1">
          <mxGeometry x="430" y="370" width="120" height="60" as="geometry" />
        </mxCell>
        <mxCell id="P5xsUmdTjZuujOmd9qbt-13" value="报表3" style="rounded=0;whiteSpace=wrap;html=1;fillColor=#f5f5f5;strokeColor=#666666;fontColor=#333333;" vertex="1" parent="P5xsUmdTjZuujOmd9qbt-1">
          <mxGeometry x="430" y="460" width="120" height="60" as="geometry" />
        </mxCell>
        <mxCell id="P5xsUmdTjZuujOmd9qbt-14" value="报表4" style="rounded=0;whiteSpace=wrap;html=1;fillColor=#f5f5f5;strokeColor=#666666;fontColor=#333333;" vertex="1" parent="P5xsUmdTjZuujOmd9qbt-1">
          <mxGeometry x="430" y="550" width="120" height="60" as="geometry" />
        </mxCell>
        <mxCell id="P5xsUmdTjZuujOmd9qbt-17" value="报表2" style="rounded=0;whiteSpace=wrap;html=1;fillColor=#f5f5f5;strokeColor=#666666;fontColor=#333333;" vertex="1" parent="P5xsUmdTjZuujOmd9qbt-1">
          <mxGeometry x="890" y="300" width="120" height="60" as="geometry" />
        </mxCell>
        <mxCell id="P5xsUmdTjZuujOmd9qbt-18" value="报表3" style="rounded=0;whiteSpace=wrap;html=1;fillColor=#f5f5f5;strokeColor=#666666;fontColor=#333333;" vertex="1" parent="P5xsUmdTjZuujOmd9qbt-1">
          <mxGeometry x="890" y="380" width="120" height="60" as="geometry" />
        </mxCell>
        <mxCell id="P5xsUmdTjZuujOmd9qbt-19" value="报表4" style="rounded=0;whiteSpace=wrap;html=1;fillColor=#f5f5f5;strokeColor=#666666;fontColor=#333333;" vertex="1" parent="P5xsUmdTjZuujOmd9qbt-1">
          <mxGeometry x="890" y="460" width="120" height="60" as="geometry" />
        </mxCell>
        <mxCell id="P5xsUmdTjZuujOmd9qbt-21" value="" style="endArrow=classic;html=1;exitX=0;exitY=0.5;exitDx=0;exitDy=0;entryX=1;entryY=0.5;entryDx=0;entryDy=0;" edge="1" parent="P5xsUmdTjZuujOmd9qbt-1" source="P5xsUmdTjZuujOmd9qbt-9" target="P5xsUmdTjZuujOmd9qbt-11">
          <mxGeometry width="50" height="50" relative="1" as="geometry">
            <mxPoint x="750" y="380" as="sourcePoint" />
            <mxPoint x="800" y="330" as="targetPoint" />
          </mxGeometry>
        </mxCell>
        <mxCell id="P5xsUmdTjZuujOmd9qbt-22" value="" style="endArrow=classic;html=1;exitX=0;exitY=0.5;exitDx=0;exitDy=0;entryX=1;entryY=0.5;entryDx=0;entryDy=0;" edge="1" parent="P5xsUmdTjZuujOmd9qbt-1" source="P5xsUmdTjZuujOmd9qbt-17" target="P5xsUmdTjZuujOmd9qbt-12">
          <mxGeometry width="50" height="50" relative="1" as="geometry">
            <mxPoint x="700" y="460" as="sourcePoint" />
            <mxPoint x="750" y="410" as="targetPoint" />
          </mxGeometry>
        </mxCell>
        <mxCell id="P5xsUmdTjZuujOmd9qbt-23" value="" style="endArrow=classic;html=1;exitX=0;exitY=0.5;exitDx=0;exitDy=0;entryX=1;entryY=0.5;entryDx=0;entryDy=0;" edge="1" parent="P5xsUmdTjZuujOmd9qbt-1" source="P5xsUmdTjZuujOmd9qbt-18" target="P5xsUmdTjZuujOmd9qbt-13">
          <mxGeometry width="50" height="50" relative="1" as="geometry">
            <mxPoint x="750" y="540" as="sourcePoint" />
            <mxPoint x="800" y="490" as="targetPoint" />
          </mxGeometry>
        </mxCell>
        <mxCell id="P5xsUmdTjZuujOmd9qbt-24" value="" style="endArrow=classic;html=1;exitX=0;exitY=0.5;exitDx=0;exitDy=0;entryX=1;entryY=0.5;entryDx=0;entryDy=0;" edge="1" parent="P5xsUmdTjZuujOmd9qbt-1" source="P5xsUmdTjZuujOmd9qbt-19" target="P5xsUmdTjZuujOmd9qbt-14">
          <mxGeometry width="50" height="50" relative="1" as="geometry">
            <mxPoint x="680" y="580" as="sourcePoint" />
            <mxPoint x="730" y="530" as="targetPoint" />
          </mxGeometry>
        </mxCell>
        <mxCell id="P5xsUmdTjZuujOmd9qbt-26" value="" style="endArrow=classic;html=1;exitX=1;exitY=0.5;exitDx=0;exitDy=0;entryX=0.5;entryY=0;entryDx=0;entryDy=0;" edge="1" parent="P5xsUmdTjZuujOmd9qbt-1" source="P5xsUmdTjZuujOmd9qbt-2" target="P5xsUmdTjZuujOmd9qbt-15">
          <mxGeometry width="50" height="50" relative="1" as="geometry">
            <mxPoint x="790" y="180" as="sourcePoint" />
            <mxPoint x="840" y="130" as="targetPoint" />
            <Array as="points">
              <mxPoint x="1105" y="120" />
            </Array>
          </mxGeometry>
        </mxCell>
        <mxCell id="P5xsUmdTjZuujOmd9qbt-27" value="用获取的token请求R1报表" style="text;html=1;strokeColor=none;fillColor=none;align=center;verticalAlign=middle;whiteSpace=wrap;rounded=0;" vertex="1" parent="P5xsUmdTjZuujOmd9qbt-1">
          <mxGeometry x="760" y="100" width="260" height="20" as="geometry" />
        </mxCell>
        <mxCell id="P5xsUmdTjZuujOmd9qbt-29" value="请求Header里携带JWT token" style="rounded=0;whiteSpace=wrap;html=1;fillColor=#f8cecc;strokeColor=#b85450;" vertex="1" parent="P5xsUmdTjZuujOmd9qbt-1">
          <mxGeometry x="990" y="240" width="190" height="20" as="geometry" />
        </mxCell>
        <mxCell id="P5xsUmdTjZuujOmd9qbt-33" value="请求Header里携带JWT token" style="rounded=0;whiteSpace=wrap;html=1;fillColor=#f8cecc;strokeColor=#b85450;" vertex="1" parent="P5xsUmdTjZuujOmd9qbt-1">
          <mxGeometry x="990" y="320" width="190" height="20" as="geometry" />
        </mxCell>
        <mxCell id="P5xsUmdTjZuujOmd9qbt-34" value="请求Header里携带JWT token" style="rounded=0;whiteSpace=wrap;html=1;fillColor=#f8cecc;strokeColor=#b85450;" vertex="1" parent="P5xsUmdTjZuujOmd9qbt-1">
          <mxGeometry x="990" y="400" width="190" height="20" as="geometry" />
        </mxCell>
        <mxCell id="P5xsUmdTjZuujOmd9qbt-35" value="请求Header里携带JWT token" style="rounded=0;whiteSpace=wrap;html=1;fillColor=#f8cecc;strokeColor=#b85450;" vertex="1" parent="P5xsUmdTjZuujOmd9qbt-1">
          <mxGeometry x="990" y="480" width="190" height="20" as="geometry" />
        </mxCell>
        <mxCell id="P5xsUmdTjZuujOmd9qbt-36" value="&lt;font style=&quot;font-size: 16px&quot; color=&quot;#ff3333&quot;&gt;R1&lt;/font&gt;" style="text;html=1;strokeColor=none;fillColor=none;align=center;verticalAlign=middle;whiteSpace=wrap;rounded=0;" vertex="1" parent="P5xsUmdTjZuujOmd9qbt-1">
          <mxGeometry x="1340" y="410" width="40" height="20" as="geometry" />
        </mxCell>
        <mxCell id="P5xsUmdTjZuujOmd9qbt-38" value="仲谋底层用户表" style="rounded=0;whiteSpace=wrap;html=1;" vertex="1" parent="P5xsUmdTjZuujOmd9qbt-1">
          <mxGeometry x="360" y="720" width="120" height="60" as="geometry" />
        </mxCell>
        <mxCell id="P5xsUmdTjZuujOmd9qbt-39" value="R1底层用户表" style="rounded=0;whiteSpace=wrap;html=1;" vertex="1" parent="P5xsUmdTjZuujOmd9qbt-1">
          <mxGeometry x="1080" y="680" width="120" height="60" as="geometry" />
        </mxCell>
        <mxCell id="P5xsUmdTjZuujOmd9qbt-40" value="" style="endArrow=classic;startArrow=classic;html=1;exitX=1;exitY=0.5;exitDx=0;exitDy=0;entryX=0;entryY=0.5;entryDx=0;entryDy=0;" edge="1" parent="P5xsUmdTjZuujOmd9qbt-1" source="P5xsUmdTjZuujOmd9qbt-38" target="P5xsUmdTjZuujOmd9qbt-39">
          <mxGeometry width="50" height="50" relative="1" as="geometry">
            <mxPoint x="650" y="880" as="sourcePoint" />
            <mxPoint x="700" y="830" as="targetPoint" />
          </mxGeometry>
        </mxCell>
        <mxCell id="P5xsUmdTjZuujOmd9qbt-41" value="用户信息同步" style="text;html=1;strokeColor=none;fillColor=none;align=center;verticalAlign=middle;whiteSpace=wrap;rounded=0;" vertex="1" parent="P5xsUmdTjZuujOmd9qbt-1">
          <mxGeometry x="725" y="730" width="155" height="20" as="geometry" />
        </mxCell>
      </root>
    </mxGraphModel>
  </diagram>
</mxfile>
